<svg id="Calque_1" data-name="Calque 1" xmlns="http://www.w3.org/2000/svg" viewBox="0 0 266.79 244.23"><defs><style>.cls-1{fill:#00eed1;}</style></defs><path class="cls-1" d="M303.19,81.07A83.61,83.61,0,0,0,279,67.12a.59.59,0,0,1-.41-.54V58.87a.36.36,0,0,1,.45-.32C287.68,60.29,296,65.61,302.2,71c13.87,12.09,24.5,28.36,26.59,45.69a2.28,2.28,0,0,1-.34,1.49c-.13.23-.22.22-.28,0-2.69-14.32-12.81-27.2-25-37.08Z" transform="translate(-110.88 -58.54)"/><path class="cls-1" d="M278.07,69.18a89.23,89.23,0,0,1,27.76,19.43,74.08,74.08,0,0,1,13,17.6,35.16,35.16,0,0,1,3.85,13.19.27.27,0,0,1-.27.27c-7.55-.07-15.17-2.85-21.56-6.15-15.74-8.15-29.4-20.73-37-35.78a34.35,34.35,0,0,1-3.55-12.5c0-.44.19-.64.69-.59a54.38,54.38,0,0,1,17.12,4.53Z" transform="translate(-110.88 -58.54)"/><path class="cls-1" d="M365.87,186.94c-13.58,6.9-33.4-1.28-44.28-18.27s-8.7-36.34,4.87-43.23,33.4,1.28,44.29,18.27,8.7,36.34-4.88,43.23Z" transform="translate(-110.88 -58.54)"/><path class="cls-1" d="M225.18,262.48c-18.3-7-32.2-20.19-38.47-37a54.13,54.13,0,0,1-2.5-30.49q4.14-19.83,20.54-33.74a75.52,75.52,0,0,1,11.2-7.64,70.23,70.23,0,0,1,29.85-9A79.71,79.71,0,0,1,268.85,146q25.69,5.73,40.77,25.41a54.28,54.28,0,0,1,11,24.67,86.26,86.26,0,0,1,.84,9,46.15,46.15,0,0,1-.28,5.27,53.27,53.27,0,0,1-5.5,20,.54.54,0,0,1-.5.3H278.33c-.88,0-1-.3-.46-.89,12.44-12.92,12.61-31.28.08-44.17a36.21,36.21,0,0,0-13.52-8.72,41.73,41.73,0,0,0-30.37.22c-1.67.63-3.5,1.69-4.11,3.28-1.24,3.23,1,6.4,5,6.33,1.77,0,3.5-.85,5.19-1.44a30.6,30.6,0,0,1,20.66.56,25.34,25.34,0,0,1,13.91,13,22.61,22.61,0,0,1,1.53,12.1,20.72,20.72,0,0,1-3.75,9.42q-5,7.24-14.88,10.26a5.9,5.9,0,0,0-3.48,2.54c-1.49,2.45,0,5.51,2.74,6.43a8.66,8.66,0,0,0,2.77.41q30.78-.14,61.88.1c2.44,0,4.8.28,7.25.47a26.61,26.61,0,0,1,7,1.65q14.4,5.49,18,19.41a17.7,17.7,0,0,1,.6,5.34c0,.29-.19.43-.51.44q-5,.09-101.62,0a92,92,0,0,1-12.06-1,68,68,0,0,1-15-3.87Z" transform="translate(-110.88 -58.54)"/><path class="cls-1" d="M158.82,158.83c.66-.91,1-1.86,2.43-1.86q15.18,0,32.1,0c.65,0,.77.23.35.67l-3.6,3.83a2.35,2.35,0,0,1-1.7.7H160.82a.91.91,0,0,1-.56-.17c-.83-.61-2.16-2.16-1.44-3.15Z" transform="translate(-110.88 -58.54)"/><path class="cls-1" d="M180.53,174.46a.29.29,0,0,1-.26.14q-24.74,0-50.77,0c-1.8,0-2.76-.85-2.87-2.55a.24.24,0,0,1,0-.12,2.46,2.46,0,0,1,2.78-2.53H183.5a.06.06,0,0,1,.06.1l-3,5Z" transform="translate(-110.88 -58.54)"/><path class="cls-1" d="M176.85,182.51l-1.56,4.93c0,.08-.07.11-.16.11q-30.15,0-61.43,0c-1.94,0-2.87-.84-2.82-2.53s.63-2.63,2.81-2.63q32.09,0,63.06,0a.1.1,0,0,1,.1.13Z" transform="translate(-110.88 -58.54)"/><path class="cls-1" d="M178.12,239.46c-7.16,4.76-19,1.39-26.53-7.53s-7.77-20-.63-24.78,19-1.39,26.53,7.53,7.77,20,.63,24.78Z" transform="translate(-110.88 -58.54)"/><path class="cls-1" d="M286.14,275.51q-4.42,6.89-8.52,13.1Q270.11,300,256,302.36a33.93,33.93,0,0,1-19.91-3,.76.76,0,0,1-.35-1.12l14.93-22.77a1.89,1.89,0,0,1,1.59-.81l33.36,0a.55.55,0,0,1,.53.83Z" transform="translate(-110.88 -58.54)"/></svg>